<mxfile host="app.diagrams.net" agent="Mozilla/5.0 (Macintosh; Intel Mac OS X 10_15_7) AppleWebKit/605.1.15 (KHTML, like Gecko) Version/17.5 Safari/605.1.15" version="24.7.10">
  <diagram name="Page-1" id="NVIDplfwPpL645zohMpe">
    <mxGraphModel dx="795" dy="539" grid="1" gridSize="10" guides="1" tooltips="1" connect="1" arrows="1" fold="1" page="1" pageScale="1" pageWidth="827" pageHeight="1169" math="0" shadow="0">
      <root>
        <mxCell id="0" />
        <mxCell id="1" parent="0" />
        <mxCell id="J_tO9Nc0sdhzEk3S7hDS-2" value="Діяльність організації" style="whiteSpace=wrap;html=1;align=center;" vertex="1" parent="1">
          <mxGeometry x="320" y="240" width="160" height="80" as="geometry" />
        </mxCell>
        <mxCell id="J_tO9Nc0sdhzEk3S7hDS-3" value="" style="endArrow=classic;html=1;rounded=0;entryX=0.52;entryY=1.033;entryDx=0;entryDy=0;entryPerimeter=0;" edge="1" parent="1" target="J_tO9Nc0sdhzEk3S7hDS-2">
          <mxGeometry width="50" height="50" relative="1" as="geometry">
            <mxPoint x="403" y="440" as="sourcePoint" />
            <mxPoint x="420" y="330" as="targetPoint" />
          </mxGeometry>
        </mxCell>
        <mxCell id="J_tO9Nc0sdhzEk3S7hDS-4" value="" style="endArrow=classic;html=1;rounded=0;entryX=0.5;entryY=0;entryDx=0;entryDy=0;" edge="1" parent="1" target="J_tO9Nc0sdhzEk3S7hDS-2">
          <mxGeometry width="50" height="50" relative="1" as="geometry">
            <mxPoint x="400" y="140" as="sourcePoint" />
            <mxPoint x="420" y="230" as="targetPoint" />
            <Array as="points">
              <mxPoint x="400" y="180" />
            </Array>
          </mxGeometry>
        </mxCell>
        <mxCell id="J_tO9Nc0sdhzEk3S7hDS-8" value="" style="endArrow=classic;html=1;rounded=0;entryX=0;entryY=0.5;entryDx=0;entryDy=0;" edge="1" parent="1" target="J_tO9Nc0sdhzEk3S7hDS-2">
          <mxGeometry width="50" height="50" relative="1" as="geometry">
            <mxPoint x="200" y="280" as="sourcePoint" />
            <mxPoint x="470" y="230" as="targetPoint" />
            <Array as="points" />
          </mxGeometry>
        </mxCell>
        <mxCell id="J_tO9Nc0sdhzEk3S7hDS-9" value="" style="endArrow=classic;html=1;rounded=0;entryX=0;entryY=0.5;entryDx=0;entryDy=0;" edge="1" parent="1">
          <mxGeometry width="50" height="50" relative="1" as="geometry">
            <mxPoint x="480" y="279.58" as="sourcePoint" />
            <mxPoint x="600" y="279.58" as="targetPoint" />
            <Array as="points" />
          </mxGeometry>
        </mxCell>
        <mxCell id="J_tO9Nc0sdhzEk3S7hDS-10" value="Дзвінки клієнтів" style="text;html=1;align=center;verticalAlign=middle;whiteSpace=wrap;rounded=0;" vertex="1" parent="1">
          <mxGeometry x="110" y="250" width="110" height="30" as="geometry" />
        </mxCell>
        <mxCell id="J_tO9Nc0sdhzEk3S7hDS-11" value="Продані продукти" style="text;html=1;align=center;verticalAlign=middle;whiteSpace=wrap;rounded=0;" vertex="1" parent="1">
          <mxGeometry x="550" y="240" width="120" height="30" as="geometry" />
        </mxCell>
        <mxCell id="J_tO9Nc0sdhzEk3S7hDS-12" value="Правила&lt;div&gt;процедури&lt;/div&gt;&lt;div&gt;стандарти&lt;/div&gt;" style="text;html=1;align=center;verticalAlign=middle;whiteSpace=wrap;rounded=0;" vertex="1" parent="1">
          <mxGeometry x="330" y="120" width="60" height="30" as="geometry" />
        </mxCell>
        <mxCell id="J_tO9Nc0sdhzEk3S7hDS-13" value="Система оформлення замовлень" style="text;html=1;align=center;verticalAlign=middle;whiteSpace=wrap;rounded=0;" vertex="1" parent="1">
          <mxGeometry x="270" y="420" width="130" height="30" as="geometry" />
        </mxCell>
      </root>
    </mxGraphModel>
  </diagram>
</mxfile>
